<?xml version="1.0" encoding="utf-8"?>
<!-- Generator: Adobe Illustrator 24.0.0, SVG Export Plug-In . SVG Version: 6.00 Build 0)  -->
<svg version="1.1" id="Слой_1" xmlns="http://www.w3.org/2000/svg" xmlns:xlink="http://www.w3.org/1999/xlink" x="0px" y="0px"
	 viewBox="0 0 275 236" style="enable-background:new 0 0 275 236;" xml:space="preserve">
<style type="text/css">
	.st0{fill:#26303F;}
	.st1{fill:#D3E2F4;}
	.st2{fill:#2E5EA9;}
	.st3{fill:#E3206D;}
</style>
<g>
	<path class="st0" d="M144.1,74.8C89.7,58.6,40.7,62.2,34.6,82.9c-0.3,1-0.5,2.1-0.6,3.2c8.4-19,55.4-22.1,107.3-6.6
		c53.6,16,92.2,45.6,86.1,66.3c-0.5,1.7-1.3,3.2-2.3,4.7c3.3-2.5,5.5-5.5,6.5-9C237.8,120.8,198.6,91,144.1,74.8z"/>
	<circle class="st1" cx="105.8" cy="100.3" r="74.3"/>
	<polygon class="st2" points="103,108.2 85.4,84.8 111.6,98.3 	"/>
	<polygon class="st3" points="129,121.1 113.7,99.7 105,109.6 	"/>
	<path class="st0" d="M212.2,102.4c18.1,13.7,27.6,28.9,23.9,41.6c-6.8,23.3-55.3,29.7-109,14.6l-5,11.3l1.5-5
		c63.7,34.8,126,26.7,134.3-1.7C263.3,144.9,239.9,120.5,212.2,102.4z"/>
	<g>
		<g>
			<path class="st0" d="M118.7,175.7c0.2,1.7,10.3-0.3,12-1.4c1-0.6-2.8-3.2-2.4-8c0.3-4.1,3.3-7.6,2.9-7.8
				c-1.3-0.7-6.6-2.2-7.6-2.4c-1-0.2-3.2,2.4-4.1,4.7C118.6,162.9,118.1,171.8,118.7,175.7z"/>
			<path class="st0" d="M135.3,168.9c0,0-4.8-4.8-5.5-6.1c-0.7-1.4-1.1-3.2-0.7-3.7c0.5-0.6,1.5-1,2.4-0.3c0.9,0.6,6.8,8.5,6.8,8.5
				s9.5,9.3,9.8,10.4c0.1,0.3-1.2,1.9-1.8,2.4c-0.6,0.5-6-4.9-8-7.4C136.3,170.2,135.3,168.9,135.3,168.9z"/>
			<path class="st0" d="M119.6,160.4c0,0-3.1-9.8-3.5-10.8s-2.7-13.2-2.7-13.2l3.5-0.3c0,0,2.7,11.8,3,12.6c0.3,0.9,3.9,7.6,3.9,7.6
				s0.2,1.8-0.5,2.3s-1.2,1.6-2.2,1.5C120.1,159.9,119.6,160.4,119.6,160.4z"/>
			<path class="st0" d="M122,174.9c0,0,9,15.6,9.8,16.5c0.7,0.9,11.3,9.6,12,9.9c0.7,0.3,4.1,2.9,5.5,3.9c1.1,0.7,2.2-2,2.2-2
				l-12.1-14c0,0-4.2-7.6-4.8-9.7c-0.6-2.1-4.3-6.6-4.3-6.6L122,174.9z"/>
			<path class="st0" d="M150.5,206.2c0.9,0.6,2.9,1.9,4,2.3c1.5,0.6,4.8,1,5.2,0.7s-3.1-3.2-4.1-3.7s-1.4-0.5-1.8-1.5
				c-0.4-1-0.9-2.7-1.6-2.2c-0.7,0.6-3.3,2-3.6,2.3C148.4,204.5,150.3,206.1,150.5,206.2z"/>
			<path class="st0" d="M126.3,147.7c-1.8,2-3.2,5.3-1.2,7.1c2,1.8,7.7,1.1,9.4-1c1.8-2,1.7-4.9-0.3-6.7
				C132.1,145.3,128,145.7,126.3,147.7z"/>
			<path class="st0" d="M125.9,154.3c0,0-0.4,0.9-1,1.8c-0.7,0.9-1,1.1-1,1.1l3.1,2.1c0,0,1.4-3.5,2.3-4.4c0.9-0.9,1.4-1.5,1.4-1.5
				L125.9,154.3z"/>
			<path class="st0" d="M131,155.7c0.1,0.6,1.1,0.6,1.6,0.5c0.5-0.2,0.9-0.3,1.2-0.5c0.7-0.5,0.9-1,0.7-1c0,0,2-0.5,2.7-2.4
				c0.7-1.9,0.3-3.6-0.1-4.2c-0.4-0.7-1.2-1.5-1.2-2.2c-0.1-0.7-1.2-1.6-2.1-2c-0.9-0.4-1.6-0.1-2.4-0.4s-0.9-0.5-1.2-0.9
				s-1.6-0.4-2.1,0.5c-0.5,0.9-0.4,1.2-0.1,1.9c0.3,0.7,0.2,1,1.4,1.6c0.4,0.2,1.6,0.3,1.6,0.3s-0.9,1.3-1,2.8c-0.1,0.7,0,0.7,0,0.7
				s0.6-0.6,1.1-0.6c0.5,0.1,1,0.3,1.2,0.7c0.2,0.3,0.3,0.7,0.1,1.1c-0.2,0.4-0.9,0.9-1.1,0.9c-0.2,0.1,0.2,0.6,0,1
				c-0.2,0.4-0.6,1.3-0.6,1.3S130.9,155.4,131,155.7C131,155.8,131,155.7,131,155.7z"/>
			<path class="st0" d="M118.7,175.7l1.2,16.6c0.1,0.9,0.6,1.5,1.5,1.8l15.9,4.2l-0.9-2.8l-9.6-4.7l2.5-15.4l-9.7,0.9"/>
			<path class="st0" d="M136.3,199.1c0.8,0.7,2.7,2.3,3.7,2.8c1.3,0.7,3.8,1.9,4.1,1.6s-2.3-4.5-3.2-5c-0.9-0.6-1.2-0.6-1.6-1.8
				s-0.9-3.2-1.5-2.6c-0.7,0.6-3,2.3-3.3,2.7C134.3,197,136,198.9,136.3,199.1z"/>
			<path class="st0" d="M117,137c0,0-1.5-1.8-1.7-3.8c-0.2-1.9-0.9-5.1-1.2-5.6c-0.3-0.6-0.5-0.1-0.3,0.7l0.3,2.4l-1-0.1
				c0,0-1.8-0.2-1.8,0.3c0.1,0.5,1.2,0.9,1.2,0.9l0.2,0.2c0,0-0.6,0-0.9,0.1c-0.2,0.1-0.1,0.3,0.6,0.7c0.7,0.4,0.5,0.5,0.6,1.2
				c0.1,0.8,1,1.1,1.1,1.9c0.2,0.8,0.1,2.2,0.1,2.2L117,137z"/>
			<path class="st0" d="M147.5,177.7c0,0,0.7,0.7,1,0.9c0.3,0.2,2.2,1,2.7,1.9s1,2.4,0.3,2.7c-0.2,0.1-0.2-0.2-0.4-0.6
				c-0.2-0.4-0.8-1.1-1.3-1.4c-0.5-0.2-1-0.5-1-0.5s0.5,1.2,0.3,1.4c-0.1,0.2-0.2,0.5-0.7-0.3c-0.2-0.4-0.5-0.7-0.7-0.9
				c-0.2-0.2-0.3-0.4-0.3-0.7c0-0.2-0.1-0.3-0.1-0.4c-0.2-0.3-1.4-1-1.4-1L147.5,177.7z"/>
			<path class="st0" d="M137.2,148"/>
		</g>
	</g>
</g>
</svg>
