<?xml version="1.0" encoding="utf-8"?>
<!-- Generator: Adobe Illustrator 24.0.0, SVG Export Plug-In . SVG Version: 6.00 Build 0)  -->
<svg version="1.1" id="Слой_1" xmlns="http://www.w3.org/2000/svg" xmlns:xlink="http://www.w3.org/1999/xlink" x="0px" y="0px"
	 viewBox="0 0 605 1080" style="enable-background:new 0 0 605 1080;" xml:space="preserve">
<style type="text/css">
	.st0{fill:#B1E22B;}
	.st1{fill:#465160;}
	.st2{fill:#2E5EA9;}
	.st3{fill:#E3206D;}
	.st4{fill:#26303F;}
	.st5{fill:#D3E2F4;}
	.st6{fill:#CCCCCC;}
	.st7{fill:#2D2D2D;}
</style>
<g>
	<path class="st0" d="M156.1,92.8c-54.4-16.2-103.5-12.6-109.5,8.1c-0.3,1-0.5,2.1-0.6,3.2c8.4-19,55.4-22.1,107.3-6.6
		c53.6,16,92.2,45.6,86.1,66.3c-0.5,1.7-1.3,3.2-2.3,4.7c3.3-2.5,5.5-5.5,6.5-9C249.8,138.8,210.6,109,156.1,92.8z"/>
	<circle class="st1" cx="117.8" cy="118.3" r="74.3"/>
	<polygon class="st2" points="115,126.2 97.4,102.8 123.6,116.3 	"/>
	<polygon class="st3" points="141,139.1 125.7,117.7 117,127.6 	"/>
	<path class="st0" d="M224.2,120.4c18.1,13.7,27.6,28.9,23.9,41.6c-6.8,23.3-55.3,29.7-109,14.6l-5,11.3l1.5-5
		c63.7,34.8,126,26.7,134.3-1.7C275.3,162.9,251.9,138.5,224.2,120.4z"/>
	<g>
		<g>
			<path class="st0" d="M130.7,193.7c0.2,1.7,10.3-0.3,12-1.4c1-0.6-2.8-3.2-2.4-8c0.3-4.1,3.3-7.6,2.9-7.8
				c-1.3-0.7-6.6-2.2-7.6-2.4c-1-0.2-3.2,2.4-4.1,4.7C130.6,180.9,130.1,189.8,130.7,193.7z"/>
			<path class="st0" d="M147.3,186.9c0,0-4.8-4.8-5.5-6.1c-0.7-1.4-1.1-3.2-0.7-3.7c0.5-0.6,1.5-1,2.4-0.3c0.9,0.6,6.8,8.5,6.8,8.5
				s9.5,9.3,9.8,10.4c0.1,0.3-1.2,1.9-1.8,2.4c-0.6,0.5-6-4.9-8-7.4C148.3,188.2,147.3,186.9,147.3,186.9z"/>
			<path class="st0" d="M131.6,178.4c0,0-3.1-9.8-3.5-10.8c-0.4-1-2.7-13.2-2.7-13.2l3.5-0.3c0,0,2.7,11.8,3,12.6
				c0.3,0.9,3.9,7.6,3.9,7.6s0.2,1.8-0.5,2.3s-1.2,1.6-2.2,1.5C132.1,177.9,131.6,178.4,131.6,178.4z"/>
			<path class="st0" d="M134,192.9c0,0,9,15.6,9.8,16.5c0.7,0.9,11.3,9.6,12,9.9c0.7,0.3,4.1,2.9,5.5,3.9c1.1,0.7,2.2-2,2.2-2
				l-12.1-14c0,0-4.2-7.6-4.8-9.7c-0.6-2.1-4.3-6.6-4.3-6.6L134,192.9z"/>
			<path class="st0" d="M162.5,224.2c0.9,0.6,2.9,1.9,4,2.3c1.5,0.6,4.8,1,5.2,0.7s-3.1-3.2-4.1-3.7s-1.4-0.5-1.8-1.5
				c-0.4-1-0.9-2.7-1.6-2.2c-0.7,0.6-3.3,2-3.6,2.3C160.4,222.5,162.3,224.1,162.5,224.2z"/>
			<path class="st0" d="M138.3,165.7c-1.8,2-3.2,5.3-1.2,7.1c2,1.8,7.7,1.1,9.4-1c1.8-2,1.7-4.9-0.3-6.7
				C144.1,163.3,140,163.7,138.3,165.7z"/>
			<path class="st0" d="M137.9,172.3c0,0-0.4,0.9-1,1.8c-0.7,0.9-1,1.1-1,1.1l3.1,2.1c0,0,1.4-3.5,2.3-4.4c0.9-0.9,1.4-1.5,1.4-1.5
				L137.9,172.3z"/>
			<path class="st0" d="M143,173.7c0.1,0.6,1.1,0.6,1.6,0.5c0.5-0.2,0.9-0.3,1.2-0.5c0.7-0.5,0.9-1,0.7-1c0,0,2-0.5,2.7-2.4
				c0.7-1.9,0.3-3.6-0.1-4.2c-0.4-0.7-1.2-1.5-1.2-2.2c-0.1-0.7-1.2-1.6-2.1-2c-0.9-0.4-1.6-0.1-2.4-0.4s-0.9-0.5-1.2-0.9
				s-1.6-0.4-2.1,0.5c-0.5,0.9-0.4,1.2-0.1,1.9c0.3,0.7,0.2,1,1.4,1.6c0.4,0.2,1.6,0.3,1.6,0.3s-0.9,1.3-1,2.8c-0.1,0.7,0,0.7,0,0.7
				s0.6-0.6,1.1-0.6c0.5,0.1,1,0.3,1.2,0.7c0.2,0.3,0.3,0.7,0.1,1.1c-0.2,0.4-0.9,0.9-1.1,0.9c-0.2,0.1,0.2,0.6,0,1
				c-0.2,0.4-0.6,1.3-0.6,1.3S142.9,173.4,143,173.7C143,173.8,143,173.7,143,173.7z"/>
			<path class="st0" d="M130.7,193.7l1.2,16.6c0.1,0.9,0.6,1.5,1.5,1.8l15.9,4.2l-0.9-2.8l-9.6-4.7l2.5-15.4l-9.7,0.9"/>
			<path class="st0" d="M148.3,217.1c0.8,0.7,2.7,2.3,3.7,2.8c1.3,0.7,3.8,1.9,4.1,1.6s-2.3-4.5-3.2-5c-0.9-0.6-1.2-0.6-1.6-1.8
				s-0.9-3.2-1.5-2.6c-0.7,0.6-3,2.3-3.3,2.7C146.3,215,148,216.9,148.3,217.1z"/>
			<path class="st0" d="M129,155c0,0-1.5-1.8-1.7-3.8c-0.2-1.9-0.9-5.1-1.2-5.6c-0.3-0.6-0.5-0.1-0.3,0.7l0.3,2.4l-1-0.1
				c0,0-1.8-0.2-1.8,0.3c0.1,0.5,1.2,0.9,1.2,0.9l0.2,0.2c0,0-0.6,0-0.9,0.1c-0.2,0.1-0.1,0.3,0.6,0.7c0.7,0.4,0.5,0.5,0.6,1.2
				c0.1,0.8,1,1.1,1.1,1.9c0.2,0.8,0.1,2.2,0.1,2.2L129,155z"/>
			<path class="st0" d="M159.5,195.7c0,0,0.7,0.7,1,0.9c0.3,0.2,2.2,1,2.7,1.9s1,2.4,0.3,2.7c-0.2,0.1-0.2-0.2-0.4-0.6
				c-0.2-0.4-0.8-1.1-1.3-1.4c-0.5-0.2-1-0.5-1-0.5s0.5,1.2,0.3,1.4c-0.1,0.2-0.2,0.5-0.7-0.3c-0.2-0.4-0.5-0.7-0.7-0.9
				c-0.2-0.2-0.3-0.4-0.3-0.7c0-0.2-0.1-0.3-0.1-0.4c-0.2-0.3-1.4-1-1.4-1L159.5,195.7z"/>
			<path class="st0" d="M149.2,166"/>
		</g>
	</g>
</g>
<g>
	<path class="st4" d="M463.1,92.8c-54.4-16.2-103.5-12.6-109.5,8.1c-0.3,1-0.5,2.1-0.6,3.2c8.4-19,55.4-22.1,107.3-6.6
		c53.6,16,92.2,45.6,86.1,66.3c-0.5,1.7-1.3,3.2-2.3,4.7c3.3-2.5,5.5-5.5,6.5-9C556.8,138.8,517.6,109,463.1,92.8z"/>
	<circle class="st5" cx="424.8" cy="118.3" r="74.3"/>
	<polygon class="st2" points="422,126.2 404.4,102.8 430.6,116.3 	"/>
	<polygon class="st3" points="448,139.1 432.7,117.7 424,127.6 	"/>
	<path class="st4" d="M531.2,120.4c18.1,13.7,27.6,28.9,23.9,41.6c-6.8,23.3-55.3,29.7-109,14.6l-5,11.3l1.5-5
		c63.7,34.8,126,26.7,134.3-1.7C582.3,162.9,558.9,138.5,531.2,120.4z"/>
	<g>
		<g>
			<path class="st4" d="M437.7,193.7c0.2,1.7,10.3-0.3,12-1.4c1-0.6-2.8-3.2-2.4-8c0.3-4.1,3.3-7.6,2.9-7.8
				c-1.3-0.7-6.6-2.2-7.6-2.4c-1-0.2-3.2,2.4-4.1,4.7C437.6,180.9,437.1,189.8,437.7,193.7z"/>
			<path class="st4" d="M454.3,186.9c0,0-4.8-4.8-5.5-6.1c-0.7-1.4-1.1-3.2-0.7-3.7c0.5-0.6,1.5-1,2.4-0.3c0.9,0.6,6.8,8.5,6.8,8.5
				s9.5,9.3,9.8,10.4c0.1,0.3-1.2,1.9-1.8,2.4c-0.6,0.5-6-4.9-8-7.4C455.3,188.2,454.3,186.9,454.3,186.9z"/>
			<path class="st4" d="M438.6,178.4c0,0-3.1-9.8-3.5-10.8c-0.4-1-2.7-13.2-2.7-13.2l3.5-0.3c0,0,2.7,11.8,3,12.6s3.9,7.6,3.9,7.6
				s0.2,1.8-0.5,2.3s-1.2,1.6-2.2,1.5C439.1,177.9,438.6,178.4,438.6,178.4z"/>
			<path class="st4" d="M441,192.9c0,0,9,15.6,9.8,16.5c0.7,0.9,11.3,9.6,12,9.9c0.7,0.3,4.1,2.9,5.5,3.9c1.1,0.7,2.2-2,2.2-2
				l-12.1-14c0,0-4.2-7.6-4.8-9.7c-0.6-2.1-4.3-6.6-4.3-6.6L441,192.9z"/>
			<path class="st4" d="M469.5,224.2c0.9,0.6,2.9,1.9,4,2.3c1.5,0.6,4.8,1,5.2,0.7s-3.1-3.2-4.1-3.7c-1-0.5-1.4-0.5-1.8-1.5
				c-0.4-1-0.9-2.7-1.6-2.2c-0.7,0.6-3.3,2-3.6,2.3C467.4,222.5,469.3,224.1,469.5,224.2z"/>
			<path class="st4" d="M445.3,165.7c-1.8,2-3.2,5.3-1.2,7.1c2,1.8,7.7,1.1,9.4-1c1.8-2,1.7-4.9-0.3-6.7
				C451.1,163.3,447,163.7,445.3,165.7z"/>
			<path class="st4" d="M444.9,172.3c0,0-0.4,0.9-1,1.8c-0.7,0.9-1,1.1-1,1.1l3.1,2.1c0,0,1.4-3.5,2.3-4.4c0.9-0.9,1.4-1.5,1.4-1.5
				L444.9,172.3z"/>
			<path class="st4" d="M450,173.7c0.1,0.6,1.1,0.6,1.6,0.5c0.5-0.2,0.9-0.3,1.2-0.5c0.7-0.5,0.9-1,0.7-1c0,0,2-0.5,2.7-2.4
				c0.7-1.9,0.3-3.6-0.1-4.2c-0.4-0.7-1.2-1.5-1.2-2.2c-0.1-0.7-1.2-1.6-2.1-2c-0.9-0.4-1.6-0.1-2.4-0.4c-0.8-0.3-0.9-0.5-1.2-0.9
				c-0.3-0.4-1.6-0.4-2.1,0.5c-0.5,0.9-0.4,1.2-0.1,1.9c0.3,0.7,0.2,1,1.4,1.6c0.4,0.2,1.6,0.3,1.6,0.3s-0.9,1.3-1,2.8
				c-0.1,0.7,0,0.7,0,0.7s0.6-0.6,1.1-0.6s1,0.3,1.2,0.7s0.3,0.7,0.1,1.1c-0.2,0.4-0.9,0.9-1.1,0.9c-0.2,0.1,0.2,0.6,0,1
				c-0.2,0.4-0.6,1.3-0.6,1.3S449.9,173.4,450,173.7C450,173.8,450,173.7,450,173.7z"/>
			<path class="st4" d="M437.7,193.7l1.2,16.6c0.1,0.9,0.6,1.5,1.5,1.8l15.9,4.2l-0.9-2.8l-9.6-4.7l2.5-15.4l-9.7,0.9"/>
			<path class="st4" d="M455.3,217.1c0.8,0.7,2.7,2.3,3.7,2.8c1.3,0.7,3.8,1.9,4.1,1.6c0.3-0.3-2.3-4.5-3.2-5
				c-0.9-0.6-1.2-0.6-1.6-1.8c-0.3-1.2-0.9-3.2-1.5-2.6c-0.7,0.6-3,2.3-3.3,2.7C453.3,215,455,216.9,455.3,217.1z"/>
			<path class="st4" d="M436,155c0,0-1.5-1.8-1.7-3.8c-0.2-1.9-0.9-5.1-1.2-5.6c-0.3-0.6-0.5-0.1-0.3,0.7l0.3,2.4l-1-0.1
				c0,0-1.8-0.2-1.8,0.3c0.1,0.5,1.2,0.9,1.2,0.9l0.2,0.2c0,0-0.6,0-0.9,0.1c-0.2,0.1-0.1,0.3,0.6,0.7c0.7,0.4,0.5,0.5,0.6,1.2
				c0.1,0.8,1,1.1,1.1,1.9c0.2,0.8,0.1,2.2,0.1,2.2L436,155z"/>
			<path class="st4" d="M466.5,195.7c0,0,0.7,0.7,1,0.9c0.3,0.2,2.2,1,2.7,1.9s1,2.4,0.3,2.7c-0.2,0.1-0.2-0.2-0.4-0.6
				c-0.2-0.4-0.8-1.1-1.3-1.4c-0.5-0.2-1-0.5-1-0.5s0.5,1.2,0.3,1.4c-0.1,0.2-0.2,0.5-0.7-0.3c-0.2-0.4-0.5-0.7-0.7-0.9
				c-0.2-0.2-0.3-0.4-0.3-0.7c0-0.2-0.1-0.3-0.1-0.4c-0.2-0.3-1.4-1-1.4-1L466.5,195.7z"/>
			<path class="st4" d="M456.2,166"/>
		</g>
	</g>
</g>
<g>
	<path class="st4" d="M167.1,317.8c-54.4-16.2-103.5-12.6-109.5,8.1c-0.3,1-0.5,2.1-0.6,3.2c8.4-19,55.4-22.1,107.3-6.6
		c53.6,16,92.2,45.6,86.1,66.3c-0.5,1.7-1.3,3.2-2.3,4.7c3.3-2.5,5.5-5.5,6.5-9C260.8,363.8,221.6,334,167.1,317.8z"/>
	<circle class="st6" cx="128.8" cy="343.3" r="74.3"/>
	<polygon class="st2" points="126,351.2 108.4,327.8 134.6,341.3 	"/>
	<polygon class="st3" points="152,364.1 136.7,342.7 128,352.6 	"/>
	<path class="st4" d="M235.2,345.4c18.1,13.7,27.6,28.9,23.9,41.6c-6.5,22.5-51.9,29.2-103.3,16.1c-0.6-0.8-1.2-1.4-1.4-1.5
		c-0.1-0.1-0.2-0.1-0.3-0.2c0,0,0,0,0,0c-0.6-0.3-1.9-0.8-3.3-1.2c0.2-0.5,0.5-1,0.7-1.4c0.8,0,1.6-0.1,2.4-0.2c0,0.1,0,0.1,0,0.2
		c0.1,0.6,1.1,0.6,1.6,0.5s0.9-0.3,1.2-0.5c0.7-0.5,0.9-1,0.7-1c0,0,2-0.5,2.7-2.4c0.7-1.9,0.3-3.6-0.1-4.2
		c-0.4-0.7-1.2-1.5-1.2-2.2c-0.1-0.7-1.2-1.6-2.1-2c-0.9-0.4-1.6-0.1-2.4-0.4c-0.8-0.3-0.9-0.5-1.2-0.9c-0.3-0.4-1.6-0.4-2.1,0.5
		c-0.5,0.9-0.4,1.2-0.1,1.9c0.3,0.6,0.2,0.9,0.9,1.3c-1,0.3-2,0.8-2.6,1.5c-1.8,2-3.2,5.3-1.2,7.1c0.1,0.1,0.3,0.2,0.5,0.3
		c-0.2,0.3-0.3,0.6-0.6,0.9c-0.1,0.1-0.1,0.2-0.2,0.3c-0.4-0.1-0.8-0.2-1-0.3c-0.5-0.9-3.6-6.6-3.8-7.4c-0.3-0.9-3-12.6-3-12.6
		l-0.6,0.1c-0.4-0.7-1-1.8-1.1-2.9c-0.2-1.9-0.9-5.1-1.2-5.6c-0.3-0.6-0.5-0.1-0.3,0.7l0.3,2.4l-1-0.1c0,0-1.8-0.2-1.8,0.3
		c0.1,0.5,1.2,0.9,1.2,0.9l0.2,0.2c0,0-0.6,0-0.9,0.1c-0.2,0.1-0.1,0.3,0.6,0.7c0.7,0.4,0.5,0.5,0.6,1.2c0.1,0.8,1,1.1,1.1,1.9
		c0,0.1,0,0.3,0.1,0.4l-0.7,0.1c0,0,2.3,12.2,2.7,13.2c0.4,1,3.2,9.8,3.4,10.7c-0.1,0.1-0.1,0.2-0.1,0.4c-0.9,2.2-1.4,11.1-0.8,15.1
		l1.2,16.6c0.1,0.9,0.6,1.5,1.5,1.8l13.6,3.6c0.5,0.6,1.1,1.3,1.3,1.5c0.8,0.7,2.7,2.3,3.7,2.8c1.3,0.7,3.8,1.9,4.1,1.6
		c0.2-0.2-0.7-1.8-1.6-3.1c0.7,0.5,1.2,0.9,1.3,0.9c0.7,0.3,4.1,2.9,5.5,3.9c0,0,0,0,0,0c0.5,0.5,1.1,1,1.2,1.1
		c0.9,0.6,2.9,1.9,4,2.3c1.5,0.6,4.8,1,5.2,0.7c0.4-0.3-3.1-3.2-4.1-3.7c-1-0.5-1.4-0.5-1.8-1.5c-0.4-1-0.9-2.7-1.6-2.2
		c-0.2,0.2-0.7,0.5-1.2,0.8l-11.7-13.6c0,0-4.2-7.6-4.8-9.7c-0.6-2.1-4.2-6.5-4.3-6.6c-0.7-1.2-1.9-2.9-2-5.4
		c3.2,1.6,6.4,3.2,9.5,4.6c0.1,0.2,0.3,0.4,0.4,0.6c2,2.5,7.4,7.9,8,7.4c0.1-0.1,0.3-0.3,0.5-0.5c0.2,0.2,0.4,0.3,0.5,0.4
		c0.1,0.1,0.1,0.2,0.1,0.4c0.1,0.3,0.2,0.5,0.3,0.7c0.2,0.2,0.5,0.5,0.7,0.9c0.5,0.9,0.7,0.5,0.7,0.3c0.1-0.2-0.3-1.4-0.3-1.4
		s0.5,0.2,1,0.5c0.5,0.3,1.1,1,1.3,1.4s0.2,0.7,0.4,0.6c0.7-0.3,0.2-1.9-0.3-2.7s-2.3-1.6-2.7-1.9c-0.2-0.1-0.5-0.4-0.7-0.6
		c0.1-0.2,0.2-0.4,0.2-0.4c-0.1-0.2-0.6-0.9-1.4-1.8c55,21.8,104,12.5,111.3-12.5C286.3,387.9,262.9,363.5,235.2,345.4z
		 M159.3,438.3C159.3,438.4,159.3,438.4,159.3,438.3l-9.5-4.5l1-6c1.9,3.3,3.7,6.2,4,6.6C155.1,434.8,157.1,436.5,159.3,438.3z"/>
</g>
<g>
	<path class="st7" d="M424.8,266.5c-41.3,0-74.8,33.6-74.8,74.8s33.6,74.8,74.8,74.8s74.8-33.6,74.8-74.8S466,266.5,424.8,266.5z
		 M424.8,415.1c-40.7,0-73.8-33.1-73.8-73.8s33.1-73.8,73.8-73.8s73.8,33.1,73.8,73.8S465.5,415.1,424.8,415.1z"/>
	<polygon class="st2" points="422,349.2 404.4,325.8 430.6,339.3 	"/>
	<polygon class="st3" points="448,362.1 432.7,340.7 424,350.6 	"/>
	<path class="st4" d="M531.2,343.4c18.1,13.7,27.6,28.9,23.9,41.6c-6.8,23.3-55.3,29.7-109,14.6l-5,11.3l1.5-5
		c63.7,34.8,126,26.7,134.3-1.7C582.3,385.9,558.9,361.5,531.2,343.4z"/>
	<path class="st4" d="M474.7,446.6c-1-0.5-1.4-0.5-1.8-1.5c-0.4-1-0.9-2.7-1.6-2.2c-0.2,0.2-0.7,0.5-1.2,0.8l-11.7-13.6
		c0,0-4.2-7.6-4.8-9.7c-0.6-2.1-4.2-6.5-4.3-6.6c-0.8-1.3-2.2-3.5-2-6.5c0.1-1.6,0.6-3.1,1.2-4.3c0.1,0.3,0.2,0.5,0.3,0.7
		c0.7,1.4,5.5,6.1,5.5,6.1s1,1.3,2.9,3.7c2,2.5,7.4,7.9,8,7.4c0.1-0.1,0.3-0.3,0.5-0.5c0.2,0.2,0.4,0.3,0.5,0.4
		c0.1,0.1,0.1,0.2,0.1,0.4c0.1,0.3,0.2,0.5,0.3,0.7c0.2,0.2,0.5,0.5,0.7,0.9c0.5,0.9,0.7,0.5,0.7,0.3c0.1-0.2-0.3-1.4-0.3-1.4
		s0.5,0.2,1,0.5c0.5,0.3,1.1,1,1.3,1.4s0.2,0.7,0.4,0.6c0.7-0.3,0.2-1.9-0.3-2.7s-2.3-1.6-2.7-1.9c-0.2-0.1-0.5-0.4-0.7-0.6
		c0.1-0.2,0.2-0.4,0.2-0.4c-0.2-1.1-9.8-10.4-9.8-10.4s-5.9-7.9-6.8-8.5c-0.1-0.1-0.2-0.1-0.3-0.2c0,0,0,0,0,0
		c-0.6-0.3-1.9-0.8-3.3-1.2c0.2-0.5,0.5-1,0.7-1.4c0.8,0,1.6-0.1,2.4-0.2c0,0.1,0,0.1,0,0.2c0.1,0.6,1.1,0.6,1.6,0.5
		s0.9-0.3,1.2-0.5c0.7-0.5,0.9-1,0.7-1c0,0,2-0.5,2.7-2.4c0.7-1.9,0.3-3.6-0.1-4.2c-0.4-0.7-1.2-1.5-1.2-2.2c-0.1-0.7-1.2-1.6-2.1-2
		c-0.9-0.4-1.6-0.1-2.4-0.4c-0.8-0.3-0.9-0.5-1.2-0.9c-0.3-0.4-1.6-0.4-2.1,0.5c-0.5,0.9-0.4,1.2-0.1,1.9c0.3,0.6,0.2,0.9,0.9,1.3
		c-1,0.3-2,0.8-2.6,1.5c-1.8,2-3.2,5.3-1.2,7.1c0.1,0.1,0.3,0.2,0.5,0.3c-0.2,0.3-0.3,0.6-0.6,0.9c-0.1,0.1-0.1,0.2-0.2,0.3
		c-0.4-0.1-0.8-0.2-1-0.3c-0.5-0.9-3.6-6.6-3.8-7.4c-0.3-0.9-3-12.6-3-12.6l-0.6,0.1c-0.4-0.7-1-1.8-1.1-2.9
		c-0.2-1.9-0.9-5.1-1.2-5.6c-0.3-0.6-0.5-0.1-0.3,0.7l0.3,2.4l-1-0.1c0,0-1.8-0.2-1.8,0.3c0.1,0.5,1.2,0.9,1.2,0.9l0.2,0.2
		c0,0-0.6,0-0.9,0.1c-0.2,0.1-0.1,0.3,0.6,0.7c0.7,0.4,0.5,0.5,0.6,1.2c0.1,0.8,1,1.1,1.1,1.9c0,0.1,0,0.3,0.1,0.4l-0.7,0.1
		c0,0,2.3,12.2,2.7,13.2c0.4,1,3.2,9.8,3.4,10.7c-0.1,0.1-0.1,0.2-0.1,0.4c-0.9,2.2-1.4,11.1-0.8,15.1l1.2,16.6
		c0.1,0.9,0.6,1.5,1.5,1.8l13.6,3.6c0.5,0.6,1.1,1.3,1.3,1.5c0.8,0.7,2.7,2.3,3.7,2.8c1.3,0.7,3.8,1.9,4.1,1.6
		c0.2-0.2-0.7-1.8-1.6-3.1c0.7,0.5,1.2,0.9,1.3,0.9c0.7,0.3,4.1,2.9,5.5,3.9c0,0,0,0,0,0c0.5,0.5,1.1,1,1.2,1.1
		c0.9,0.6,2.9,1.9,4,2.3c1.5,0.6,4.8,1,5.2,0.7C479.2,450,475.7,447.1,474.7,446.6z M455.2,436.4l-9.4-4.6l1-6
		c1.9,3.3,3.7,6.2,4,6.6C451.1,432.8,453.1,434.5,455.2,436.4C455.3,436.4,455.3,436.4,455.2,436.4z"/>
	<path class="st4" d="M498,328.9c0.4,2.1,0.6,4.3,0.8,6.5c32.3,15.9,52.1,36.1,47.7,51.4c-0.5,1.7-1.3,3.2-2.3,4.7
		c3.3-2.5,5.5-5.5,6.5-9C555.4,366.6,533.3,345.3,498,328.9z"/>
</g>
<g>
	<g>
		<path class="st0" d="M163.5,555.1c-2.3-1.1-4.1-2.7-5.3-4.9c-1.2-2.1-1.8-4.7-1.8-7.7v-6.8c0-3,0.6-5.6,1.8-7.7
			c1.2-2.1,3-3.8,5.3-4.9c2.3-1.1,5.1-1.7,8.4-1.7s6.1,0.6,8.4,1.7c2.3,1.1,4.1,2.7,5.3,4.9c1.2,2.1,1.8,4.7,1.8,7.7v6.8
			c0,3-0.6,5.6-1.8,7.7c-1.2,2.1-3,3.8-5.3,4.9c-2.3,1.1-5.1,1.7-8.4,1.7S165.8,556.2,163.5,555.1z M178.7,548.3
			c1.6-1.4,2.4-3.3,2.4-5.8v-6.8c0-2.5-0.8-4.4-2.4-5.8c-1.6-1.4-3.8-2-6.7-2c-2.9,0-5.1,0.7-6.7,2c-1.6,1.4-2.4,3.3-2.4,5.8v6.8
			c0,2.5,0.8,4.4,2.4,5.8c1.6,1.4,3.8,2,6.7,2C174.8,550.3,177.1,549.6,178.7,548.3z M168.7,516.8h6.5v44.6h-6.5V516.8z"/>
		<path class="st0" d="M196,560.7c-1.4-0.8-2.5-1.9-3.3-3.3c-0.8-1.5-1.1-3.2-1.1-5.3v-11.5c0-2.2,0.4-4.1,1.1-5.6s1.8-2.7,3.2-3.6
			c1.4-0.8,3.1-1.2,5-1.2c2,0,3.7,0.4,5.1,1.2c1.4,0.8,2.5,1.9,3.2,3.4c0.7,1.5,1.1,3.3,1.1,5.4v8.4h-13.8v-5h7.6v-3.5
			c0-1.3-0.3-2.2-0.8-2.9c-0.6-0.7-1.3-1.1-2.3-1.1c-1,0-1.7,0.4-2.3,1.1c-0.5,0.7-0.8,1.8-0.8,3.2v12c0,1.2,0.3,2.1,0.9,2.7
			c0.6,0.6,1.4,1,2.5,1c1,0,1.7-0.3,2.3-0.8c0.5-0.5,0.8-1.2,0.8-2.1v-0.6l6.2,0v0.5c0,2.8-0.8,5-2.4,6.5c-1.6,1.5-3.9,2.3-6.8,2.3
			C199.2,561.8,197.4,561.4,196,560.7z"/>
		<path class="st0" d="M219.7,560.8c-1.4-0.7-2.5-1.7-3.2-3s-1.1-2.9-1.1-4.8v-13.6c0-2,0.4-3.6,1.1-5c0.8-1.4,1.8-2.4,3.2-3.2
			c1.4-0.7,3.1-1.1,5.1-1.1c2,0,3.7,0.4,5.1,1.1c1.4,0.7,2.5,1.8,3.3,3.2c0.8,1.4,1.1,3.1,1.1,5.1v1.8l-6.4,0v-1.5
			c0-1.2-0.3-2.1-0.8-2.8c-0.5-0.6-1.3-1-2.3-1s-1.7,0.3-2.3,0.9c-0.5,0.6-0.8,1.5-0.8,2.7v13c0,1,0.3,1.8,0.8,2.4
			c0.5,0.6,1.3,0.8,2.3,0.8c1,0,1.7-0.3,2.3-0.9c0.5-0.6,0.8-1.4,0.8-2.5v-1.4l6.5,0.1v1.7c0,1.9-0.4,3.5-1.1,4.8
			c-0.8,1.3-1.9,2.4-3.3,3.1c-1.4,0.7-3.2,1.1-5.2,1.1C222.9,561.8,221.1,561.5,219.7,560.8z"/>
		<path class="st0" d="M234.7,530.6h17v6.2h-17V530.6z M240,530.6h6.5v30.7H240V530.6z"/>
	</g>
</g>
<g>
	<g>
		<polygon class="st1" points="81.3,516.8 74.6,516.8 69.7,535.4 65.6,535.4 65.6,516.8 59,516.8 59,559.9 65.6,559.9 65.6,541.6 
			69.5,541.6 76.2,559.9 83.1,559.9 75,537.9 		"/>
		<path class="st1" d="M100.9,529.7c-1-0.7-2.2-1.1-3.5-1.1s-2.6,0.5-3.8,1.5c-0.8,0.7-1.5,1.6-2,2.7v-3.6h0v0h-6.5v180.1h6.5V572.4
			h0v-16.1c0.5,1.1,1.1,2,1.9,2.7c1.1,0.9,2.3,1.4,3.7,1.4c1.4,0,2.6-0.4,3.6-1.1s1.8-1.8,2.3-3.2c0.5-1.4,0.8-3.1,0.8-5v-13.3
			c0-1.9-0.3-3.6-0.8-4.9S101.9,530.4,100.9,529.7z M97.5,550.4c0,1.3-0.3,2.3-0.8,3c-0.5,0.7-1.2,1.1-2.2,1.1
			c-0.6,0-1.2-0.2-1.6-0.5c-0.4-0.3-0.8-0.8-1-1.3c-0.2-0.6-0.4-1.3-0.4-2.1v-12.2c0-0.8,0.1-1.5,0.4-2.1c0.2-0.6,0.6-1,1-1.3
			c0.4-0.3,1-0.4,1.6-0.4c0.9,0,1.6,0.3,2.2,1c0.5,0.7,0.8,1.6,0.8,2.9V550.4z"/>
		<path class="st1" d="M123.8,529.6c-1.4-0.7-3.1-1.1-5-1.1c-2.9,0-5.1,0.8-6.7,2.4c-1.6,1.6-2.4,3.8-2.4,6.7h6.3
			c0-1,0.3-1.8,0.7-2.4c0.5-0.6,1.1-0.8,2-0.8c1,0,1.8,0.3,2.3,0.8c0.6,0.6,0.8,1.4,0.8,2.4v3.8h-3c-3.2,0-5.7,0.9-7.3,2.6
			c-1.7,1.7-2.5,4.3-2.5,7.6c0,2.9,0.6,5.1,1.9,6.5c1.2,1.5,3.1,2.2,5.5,2.2c1.3,0,2.4-0.3,3.3-0.8c0.9-0.5,1.6-1.3,2-2.3
			c0.1-0.1,0.1-0.3,0.2-0.4v3.1h6.2v-22.3c0-1.9-0.4-3.5-1.1-4.9C126.2,531.4,125.2,530.3,123.8,529.6z M120.9,553.7
			c-0.6,0.7-1.6,1-2.8,1c-1,0-1.7-0.3-2.2-0.8c-0.5-0.5-0.7-1.3-0.7-2.4c0-1.6,0.3-2.8,1-3.6c0.7-0.8,1.6-1.2,2.9-1.2h2.8v4
			C121.8,552.1,121.5,553.1,120.9,553.7z"/>
		<path class="st1" d="M146.2,550.9v0.6c0,0.9-0.3,1.6-0.8,2.1c-0.5,0.5-1.3,0.8-2.3,0.8c-1.1,0-1.9-0.3-2.5-1
			c-0.6-0.6-0.9-1.6-0.9-2.7v-3.8h12.5v-8.4c0-2.1-0.4-3.9-1.1-5.4c-0.7-1.5-1.8-2.6-3.2-3.4c-1.4-0.8-3.1-1.2-5.1-1.2
			c-2,0-3.6,0.4-5,1.2c-1.4,0.8-2.5,2-3.2,3.6s-1.1,3.4-1.1,5.6v11.5c0,2.1,0.4,3.9,1.1,5.3c0.8,1.5,1.9,2.6,3.3,3.3
			c1.4,0.8,3.1,1.2,5.2,1.2c2.9,0,5.2-0.8,6.8-2.3c1.6-1.5,2.4-3.7,2.4-6.5v-0.5L146.2,550.9z M140.7,535.5c0.5-0.7,1.3-1.1,2.3-1.1
			c1,0,1.8,0.4,2.3,1.1c0.6,0.7,0.8,1.7,0.8,2.9v3.5h-6.3v-3.2C139.9,537.3,140.1,536.2,140.7,535.5z"/>
	</g>
</g>
<g>
	<path class="st3" d="M163.5,815.1c-2.3-1.1-4.1-2.7-5.3-4.9c-1.2-2.1-1.8-4.7-1.8-7.7v-6.8c0-3,0.6-5.6,1.8-7.7
		c1.2-2.1,3-3.8,5.3-4.9c2.3-1.1,5.1-1.7,8.4-1.7s6.1,0.6,8.4,1.7c2.3,1.1,4.1,2.7,5.3,4.9c1.2,2.1,1.8,4.7,1.8,7.7v6.8
		c0,3-0.6,5.6-1.8,7.7c-1.2,2.1-3,3.8-5.3,4.9c-2.3,1.1-5.1,1.7-8.4,1.7S165.8,816.2,163.5,815.1z M178.7,808.3
		c1.6-1.4,2.4-3.3,2.4-5.8v-6.8c0-2.5-0.8-4.4-2.4-5.8c-1.6-1.4-3.8-2-6.7-2c-2.9,0-5.1,0.7-6.7,2c-1.6,1.4-2.4,3.3-2.4,5.8v6.8
		c0,2.5,0.8,4.4,2.4,5.8c1.6,1.4,3.8,2,6.7,2C174.8,810.3,177.1,809.6,178.7,808.3z M168.7,776.8h6.5v44.6h-6.5V776.8z"/>
	<path class="st3" d="M196,820.7c-1.4-0.8-2.5-1.9-3.3-3.3c-0.8-1.5-1.1-3.2-1.1-5.3v-11.5c0-2.2,0.4-4.1,1.1-5.6s1.8-2.7,3.2-3.6
		c1.4-0.8,3.1-1.2,5-1.2c2,0,3.7,0.4,5.1,1.2c1.4,0.8,2.5,1.9,3.2,3.4c0.7,1.5,1.1,3.3,1.1,5.4v8.4h-13.8v-5h7.6v-3.5
		c0-1.3-0.3-2.2-0.8-2.9c-0.6-0.7-1.3-1.1-2.3-1.1c-1,0-1.7,0.4-2.3,1.1c-0.5,0.7-0.8,1.8-0.8,3.2v12c0,1.2,0.3,2.1,0.9,2.7
		c0.6,0.6,1.4,1,2.5,1c1,0,1.7-0.3,2.3-0.8c0.5-0.5,0.8-1.2,0.8-2.1v-0.6l6.2,0v0.5c0,2.8-0.8,5-2.4,6.5c-1.6,1.5-3.9,2.3-6.8,2.3
		C199.2,821.8,197.4,821.4,196,820.7z"/>
	<path class="st3" d="M219.7,820.8c-1.4-0.7-2.5-1.7-3.2-3s-1.1-2.9-1.1-4.8v-13.6c0-2,0.4-3.6,1.1-5c0.8-1.4,1.8-2.4,3.2-3.2
		c1.4-0.7,3.1-1.1,5.1-1.1c2,0,3.7,0.4,5.1,1.1c1.4,0.7,2.5,1.8,3.3,3.2c0.8,1.4,1.1,3.1,1.1,5.1v1.8l-6.4,0v-1.5
		c0-1.2-0.3-2.1-0.8-2.8c-0.5-0.6-1.3-1-2.3-1s-1.7,0.3-2.3,0.9c-0.5,0.6-0.8,1.5-0.8,2.7v13c0,1,0.3,1.8,0.8,2.4
		c0.5,0.6,1.3,0.8,2.3,0.8c1,0,1.7-0.3,2.3-0.9c0.5-0.6,0.8-1.4,0.8-2.5v-1.4l6.5,0.1v1.7c0,1.9-0.4,3.5-1.1,4.8
		c-0.8,1.3-1.9,2.4-3.3,3.1c-1.4,0.7-3.2,1.1-5.2,1.1C222.9,821.8,221.1,821.5,219.7,820.8z"/>
	<path class="st3" d="M234.7,790.6h17v6.2h-17V790.6z M240,790.6h6.5v30.7H240V790.6z"/>
</g>
<g>
	<polygon class="st2" points="81.3,776.8 74.6,776.8 69.7,795.4 65.6,795.4 65.6,776.8 59,776.8 59,819.9 65.6,819.9 65.6,801.6 
		69.5,801.6 76.2,819.9 83.1,819.9 75,797.9 	"/>
	<path class="st2" d="M100.9,789.7c-1-0.7-2.2-1.1-3.5-1.1s-2.6,0.5-3.8,1.5c-0.8,0.7-1.5,1.6-2,2.7v-3.6h0v0h-6.5v180.1h6.5V832.4
		h0v-16.1c0.5,1.1,1.1,2,1.9,2.7c1.1,0.9,2.3,1.4,3.7,1.4c1.4,0,2.6-0.4,3.6-1.1s1.8-1.8,2.3-3.2c0.5-1.4,0.8-3.1,0.8-5v-13.3
		c0-1.9-0.3-3.6-0.8-4.9S101.9,790.4,100.9,789.7z M97.5,810.4c0,1.3-0.3,2.3-0.8,3c-0.5,0.7-1.2,1.1-2.2,1.1
		c-0.6,0-1.2-0.2-1.6-0.5c-0.4-0.3-0.8-0.8-1-1.3c-0.2-0.6-0.4-1.3-0.4-2.1v-12.2c0-0.8,0.1-1.5,0.4-2.1c0.2-0.6,0.6-1,1-1.3
		c0.4-0.3,1-0.4,1.6-0.4c0.9,0,1.6,0.3,2.2,1c0.5,0.7,0.8,1.6,0.8,2.9V810.4z"/>
	<path class="st2" d="M123.8,789.6c-1.4-0.7-3.1-1.1-5-1.1c-2.9,0-5.1,0.8-6.7,2.4c-1.6,1.6-2.4,3.8-2.4,6.7h6.3
		c0-1,0.3-1.8,0.7-2.4c0.5-0.6,1.1-0.8,2-0.8c1,0,1.8,0.3,2.3,0.8c0.6,0.6,0.8,1.4,0.8,2.4v3.8h-3c-3.2,0-5.7,0.9-7.3,2.6
		c-1.7,1.7-2.5,4.3-2.5,7.6c0,2.9,0.6,5.1,1.9,6.5c1.2,1.5,3.1,2.2,5.5,2.2c1.3,0,2.4-0.3,3.3-0.8c0.9-0.5,1.6-1.3,2-2.3
		c0.1-0.1,0.1-0.3,0.2-0.4v3.1h6.2v-22.3c0-1.9-0.4-3.5-1.1-4.9C126.2,791.4,125.2,790.3,123.8,789.6z M120.9,813.7
		c-0.6,0.7-1.6,1-2.8,1c-1,0-1.7-0.3-2.2-0.8c-0.5-0.5-0.7-1.3-0.7-2.4c0-1.6,0.3-2.8,1-3.6c0.7-0.8,1.6-1.2,2.9-1.2h2.8v4
		C121.8,812.1,121.5,813.1,120.9,813.7z"/>
	<path class="st2" d="M146.2,810.9v0.6c0,0.9-0.3,1.6-0.8,2.1c-0.5,0.5-1.3,0.8-2.3,0.8c-1.1,0-1.9-0.3-2.5-1
		c-0.6-0.6-0.9-1.6-0.9-2.7v-3.8h12.5v-8.4c0-2.1-0.4-3.9-1.1-5.4c-0.7-1.5-1.8-2.6-3.2-3.4c-1.4-0.8-3.1-1.2-5.1-1.2
		c-2,0-3.6,0.4-5,1.2c-1.4,0.8-2.5,2-3.2,3.6s-1.1,3.4-1.1,5.6v11.5c0,2.1,0.4,3.9,1.1,5.3c0.8,1.5,1.9,2.6,3.3,3.3
		c1.4,0.8,3.1,1.2,5.2,1.2c2.9,0,5.2-0.8,6.8-2.3c1.6-1.5,2.4-3.7,2.4-6.5v-0.5L146.2,810.9z M140.7,795.5c0.5-0.7,1.3-1.1,2.3-1.1
		c1,0,1.8,0.4,2.3,1.1c0.6,0.7,0.8,1.7,0.8,2.9v3.5h-6.3v-3.2C139.9,797.3,140.1,796.2,140.7,795.5z"/>
</g>
<g>
	<path class="st1" d="M448.5,815.1c-2.3-1.1-4.1-2.7-5.3-4.9c-1.2-2.1-1.8-4.7-1.8-7.7v-6.8c0-3,0.6-5.6,1.8-7.7
		c1.2-2.1,3-3.8,5.3-4.9c2.3-1.1,5.1-1.7,8.4-1.7s6.1,0.6,8.4,1.7c2.3,1.1,4.1,2.7,5.3,4.9c1.2,2.1,1.8,4.7,1.8,7.7v6.8
		c0,3-0.6,5.6-1.8,7.7c-1.2,2.1-3,3.8-5.3,4.9c-2.3,1.1-5.1,1.7-8.4,1.7S450.8,816.2,448.5,815.1z M463.7,808.3
		c1.6-1.4,2.4-3.3,2.4-5.8v-6.8c0-2.5-0.8-4.4-2.4-5.8c-1.6-1.4-3.8-2-6.7-2c-2.9,0-5.1,0.7-6.7,2c-1.6,1.4-2.4,3.3-2.4,5.8v6.8
		c0,2.5,0.8,4.4,2.4,5.8c1.6,1.4,3.8,2,6.7,2C459.8,810.3,462.1,809.6,463.7,808.3z M453.7,776.8h6.5v44.6h-6.5V776.8z"/>
	<path class="st1" d="M481,820.7c-1.4-0.8-2.5-1.9-3.3-3.3c-0.8-1.5-1.1-3.2-1.1-5.3v-11.5c0-2.2,0.4-4.1,1.1-5.6s1.8-2.7,3.2-3.6
		c1.4-0.8,3.1-1.2,5-1.2c2,0,3.7,0.4,5.1,1.2c1.4,0.8,2.5,1.9,3.2,3.4c0.7,1.5,1.1,3.3,1.1,5.4v8.4h-13.8v-5h7.6v-3.5
		c0-1.3-0.3-2.2-0.8-2.9c-0.6-0.7-1.3-1.1-2.3-1.1c-1,0-1.7,0.4-2.3,1.1c-0.5,0.7-0.8,1.8-0.8,3.2v12c0,1.2,0.3,2.1,0.9,2.7
		c0.6,0.6,1.4,1,2.5,1c1,0,1.7-0.3,2.3-0.8c0.5-0.5,0.8-1.2,0.8-2.1v-0.6l6.2,0v0.5c0,2.8-0.8,5-2.4,6.5c-1.6,1.5-3.9,2.3-6.8,2.3
		C484.2,821.8,482.4,821.4,481,820.7z"/>
	<path class="st1" d="M504.7,820.8c-1.4-0.7-2.5-1.7-3.2-3s-1.1-2.9-1.1-4.8v-13.6c0-2,0.4-3.6,1.1-5c0.8-1.4,1.8-2.4,3.2-3.2
		c1.4-0.7,3.1-1.1,5.1-1.1c2,0,3.7,0.4,5.1,1.1c1.4,0.7,2.5,1.8,3.3,3.2c0.8,1.4,1.1,3.1,1.1,5.1v1.8l-6.4,0v-1.5
		c0-1.2-0.3-2.1-0.8-2.8c-0.5-0.6-1.3-1-2.3-1s-1.7,0.3-2.3,0.9c-0.5,0.6-0.8,1.5-0.8,2.7v13c0,1,0.3,1.8,0.8,2.4
		c0.5,0.6,1.3,0.8,2.3,0.8c1,0,1.7-0.3,2.3-0.9c0.5-0.6,0.8-1.4,0.8-2.5v-1.4l6.5,0.1v1.7c0,1.9-0.4,3.5-1.1,4.8
		c-0.8,1.3-1.9,2.4-3.3,3.1c-1.4,0.7-3.2,1.1-5.2,1.1C507.9,821.8,506.1,821.5,504.7,820.8z"/>
	<path class="st1" d="M519.7,790.6h17v6.2h-17V790.6z M525,790.6h6.5v30.7H525V790.6z"/>
</g>
<g>
	<polygon class="st1" points="366.3,776.8 359.6,776.8 354.7,795.4 350.6,795.4 350.6,776.8 344,776.8 344,819.9 350.6,819.9 
		350.6,801.6 354.5,801.6 361.2,819.9 368.1,819.9 360,797.9 	"/>
	<path class="st1" d="M385.9,789.7c-1-0.7-2.2-1.1-3.5-1.1s-2.6,0.5-3.8,1.5c-0.8,0.7-1.5,1.6-2,2.7v-3.6h0v0h-6.5v180.1h6.5V832.4
		h0v-16.1c0.5,1.1,1.1,2,1.9,2.7c1.1,0.9,2.3,1.4,3.7,1.4c1.4,0,2.6-0.4,3.6-1.1s1.8-1.8,2.3-3.2c0.5-1.4,0.8-3.1,0.8-5v-13.3
		c0-1.9-0.3-3.6-0.8-4.9S386.9,790.4,385.9,789.7z M382.5,810.4c0,1.3-0.3,2.3-0.8,3c-0.5,0.7-1.2,1.1-2.2,1.1
		c-0.6,0-1.2-0.2-1.6-0.5c-0.4-0.3-0.8-0.8-1-1.3c-0.2-0.6-0.4-1.3-0.4-2.1v-12.2c0-0.8,0.1-1.5,0.4-2.1c0.2-0.6,0.6-1,1-1.3
		c0.4-0.3,1-0.4,1.6-0.4c0.9,0,1.6,0.3,2.2,1c0.5,0.7,0.8,1.6,0.8,2.9V810.4z"/>
	<path class="st1" d="M408.8,789.6c-1.4-0.7-3.1-1.1-5-1.1c-2.9,0-5.1,0.8-6.7,2.4c-1.6,1.6-2.4,3.8-2.4,6.7h6.3
		c0-1,0.3-1.8,0.7-2.4c0.5-0.6,1.1-0.8,2-0.8c1,0,1.8,0.3,2.3,0.8c0.6,0.6,0.8,1.4,0.8,2.4v3.8h-3c-3.2,0-5.7,0.9-7.3,2.6
		c-1.7,1.7-2.5,4.3-2.5,7.6c0,2.9,0.6,5.1,1.9,6.5c1.2,1.5,3.1,2.2,5.5,2.2c1.3,0,2.4-0.3,3.3-0.8c0.9-0.5,1.6-1.3,2-2.3
		c0.1-0.1,0.1-0.3,0.2-0.4v3.1h6.2v-22.3c0-1.9-0.4-3.5-1.1-4.9C411.2,791.4,410.2,790.3,408.8,789.6z M405.9,813.7
		c-0.6,0.7-1.6,1-2.8,1c-1,0-1.7-0.3-2.2-0.8c-0.5-0.5-0.7-1.3-0.7-2.4c0-1.6,0.3-2.8,1-3.6c0.7-0.8,1.6-1.2,2.9-1.2h2.8v4
		C406.8,812.1,406.5,813.1,405.9,813.7z"/>
	<path class="st1" d="M431.2,810.9v0.6c0,0.9-0.3,1.6-0.8,2.1c-0.5,0.5-1.3,0.8-2.3,0.8c-1.1,0-1.9-0.3-2.5-1
		c-0.6-0.6-0.9-1.6-0.9-2.7v-3.8h12.5v-8.4c0-2.1-0.4-3.9-1.1-5.4c-0.7-1.5-1.8-2.6-3.2-3.4c-1.4-0.8-3.1-1.2-5.1-1.2
		c-2,0-3.6,0.4-5,1.2c-1.4,0.8-2.5,2-3.2,3.6s-1.1,3.4-1.1,5.6v11.5c0,2.1,0.4,3.9,1.1,5.3c0.8,1.5,1.9,2.6,3.3,3.3
		c1.4,0.8,3.1,1.2,5.2,1.2c2.9,0,5.2-0.8,6.8-2.3c1.6-1.5,2.4-3.7,2.4-6.5v-0.5L431.2,810.9z M425.7,795.5c0.5-0.7,1.3-1.1,2.3-1.1
		c1,0,1.8,0.4,2.3,1.1c0.6,0.7,0.8,1.7,0.8,2.9v3.5h-6.3v-3.2C424.9,797.3,425.1,796.2,425.7,795.5z"/>
</g>
<g>
	<g>
		<path class="st6" d="M454.5,555.1c-2.3-1.1-4.1-2.7-5.3-4.9c-1.2-2.1-1.8-4.7-1.8-7.7v-6.8c0-3,0.6-5.6,1.8-7.7
			c1.2-2.1,3-3.8,5.3-4.9c2.3-1.1,5.1-1.7,8.4-1.7s6.1,0.6,8.4,1.7c2.3,1.1,4.1,2.7,5.3,4.9c1.2,2.1,1.8,4.7,1.8,7.7v6.8
			c0,3-0.6,5.6-1.8,7.7c-1.2,2.1-3,3.8-5.3,4.9c-2.3,1.1-5.1,1.7-8.4,1.7S456.8,556.2,454.5,555.1z M469.7,548.3
			c1.6-1.4,2.4-3.3,2.4-5.8v-6.8c0-2.5-0.8-4.4-2.4-5.8c-1.6-1.4-3.8-2-6.7-2c-2.9,0-5.1,0.7-6.7,2c-1.6,1.4-2.4,3.3-2.4,5.8v6.8
			c0,2.5,0.8,4.4,2.4,5.8c1.6,1.4,3.8,2,6.7,2C465.8,550.3,468.1,549.6,469.7,548.3z M459.7,516.8h6.5v44.6h-6.5V516.8z"/>
		<path class="st6" d="M487,560.7c-1.4-0.8-2.5-1.9-3.3-3.3c-0.8-1.5-1.1-3.2-1.1-5.3v-11.5c0-2.2,0.4-4.1,1.1-5.6s1.8-2.7,3.2-3.6
			c1.4-0.8,3.1-1.2,5-1.2c2,0,3.7,0.4,5.1,1.2c1.4,0.8,2.5,1.9,3.2,3.4c0.7,1.5,1.1,3.3,1.1,5.4v8.4h-13.8v-5h7.6v-3.5
			c0-1.3-0.3-2.2-0.8-2.9c-0.6-0.7-1.3-1.1-2.3-1.1c-1,0-1.7,0.4-2.3,1.1c-0.5,0.7-0.8,1.8-0.8,3.2v12c0,1.2,0.3,2.1,0.9,2.7
			c0.6,0.6,1.4,1,2.5,1c1,0,1.7-0.3,2.3-0.8c0.5-0.5,0.8-1.2,0.8-2.1v-0.6l6.2,0v0.5c0,2.8-0.8,5-2.4,6.5c-1.6,1.5-3.9,2.3-6.8,2.3
			C490.2,561.8,488.4,561.4,487,560.7z"/>
		<path class="st6" d="M510.7,560.8c-1.4-0.7-2.5-1.7-3.2-3s-1.1-2.9-1.1-4.8v-13.6c0-2,0.4-3.6,1.1-5c0.8-1.4,1.8-2.4,3.2-3.2
			c1.4-0.7,3.1-1.1,5.1-1.1c2,0,3.7,0.4,5.1,1.1c1.4,0.7,2.5,1.8,3.3,3.2c0.8,1.4,1.1,3.1,1.1,5.1v1.8l-6.4,0v-1.5
			c0-1.2-0.3-2.1-0.8-2.8c-0.5-0.6-1.3-1-2.3-1s-1.7,0.3-2.3,0.9c-0.5,0.6-0.8,1.5-0.8,2.7v13c0,1,0.3,1.8,0.8,2.4
			c0.5,0.6,1.3,0.8,2.3,0.8c1,0,1.7-0.3,2.3-0.9c0.5-0.6,0.8-1.4,0.8-2.5v-1.4l6.5,0.1v1.7c0,1.9-0.4,3.5-1.1,4.8
			c-0.8,1.3-1.9,2.4-3.3,3.1c-1.4,0.7-3.2,1.1-5.2,1.1C513.9,561.8,512.1,561.5,510.7,560.8z"/>
		<path class="st6" d="M525.7,530.6h17v6.2h-17V530.6z M531,530.6h6.5v30.7H531V530.6z"/>
	</g>
</g>
<g>
	<g>
		<polygon class="st1" points="372.3,516.8 365.6,516.8 360.7,535.4 356.6,535.4 356.6,516.8 350,516.8 350,559.9 356.6,559.9 
			356.6,541.6 360.5,541.6 367.2,559.9 374.1,559.9 366,537.9 		"/>
		<path class="st1" d="M391.9,529.7c-1-0.7-2.2-1.1-3.5-1.1s-2.6,0.5-3.8,1.5c-0.8,0.7-1.5,1.6-2,2.7v-3.6h0v0h-6.5v180.1h6.5V572.4
			h0v-16.1c0.5,1.1,1.1,2,1.9,2.7c1.1,0.9,2.3,1.4,3.7,1.4c1.4,0,2.6-0.4,3.6-1.1s1.8-1.8,2.3-3.2c0.5-1.4,0.8-3.1,0.8-5v-13.3
			c0-1.9-0.3-3.6-0.8-4.9S392.9,530.4,391.9,529.7z M388.5,550.4c0,1.3-0.3,2.3-0.8,3c-0.5,0.7-1.2,1.1-2.2,1.1
			c-0.6,0-1.2-0.2-1.6-0.5c-0.4-0.3-0.8-0.8-1-1.3c-0.2-0.6-0.4-1.3-0.4-2.1v-12.2c0-0.8,0.1-1.5,0.4-2.1c0.2-0.6,0.6-1,1-1.3
			c0.4-0.3,1-0.4,1.6-0.4c0.9,0,1.6,0.3,2.2,1c0.5,0.7,0.8,1.6,0.8,2.9V550.4z"/>
		<path class="st1" d="M414.8,529.6c-1.4-0.7-3.1-1.1-5-1.1c-2.9,0-5.1,0.8-6.7,2.4c-1.6,1.6-2.4,3.8-2.4,6.7h6.3
			c0-1,0.3-1.8,0.7-2.4c0.5-0.6,1.1-0.8,2-0.8c1,0,1.8,0.3,2.3,0.8c0.6,0.6,0.8,1.4,0.8,2.4v3.8h-3c-3.2,0-5.7,0.9-7.3,2.6
			c-1.7,1.7-2.5,4.3-2.5,7.6c0,2.9,0.6,5.1,1.9,6.5c1.2,1.5,3.1,2.2,5.5,2.2c1.3,0,2.4-0.3,3.3-0.8c0.9-0.5,1.6-1.3,2-2.3
			c0.1-0.1,0.1-0.3,0.2-0.4v3.1h6.2v-22.3c0-1.9-0.4-3.5-1.1-4.9C417.2,531.4,416.2,530.3,414.8,529.6z M411.9,553.7
			c-0.6,0.7-1.6,1-2.8,1c-1,0-1.7-0.3-2.2-0.8c-0.5-0.5-0.7-1.3-0.7-2.4c0-1.6,0.3-2.8,1-3.6c0.7-0.8,1.6-1.2,2.9-1.2h2.8v4
			C412.8,552.1,412.5,553.1,411.9,553.7z"/>
		<path class="st1" d="M437.2,550.9v0.6c0,0.9-0.3,1.6-0.8,2.1c-0.5,0.5-1.3,0.8-2.3,0.8c-1.1,0-1.9-0.3-2.5-1
			c-0.6-0.6-0.9-1.6-0.9-2.7v-3.8h12.5v-8.4c0-2.1-0.4-3.9-1.1-5.4c-0.7-1.5-1.8-2.6-3.2-3.4c-1.4-0.8-3.1-1.2-5.1-1.2
			c-2,0-3.6,0.4-5,1.2c-1.4,0.8-2.5,2-3.2,3.6s-1.1,3.4-1.1,5.6v11.5c0,2.1,0.4,3.9,1.1,5.3c0.8,1.5,1.9,2.6,3.3,3.3
			c1.4,0.8,3.1,1.2,5.2,1.2c2.9,0,5.2-0.8,6.8-2.3c1.6-1.5,2.4-3.7,2.4-6.5v-0.5L437.2,550.9z M431.7,535.5c0.5-0.7,1.3-1.1,2.3-1.1
			c1,0,1.8,0.4,2.3,1.1c0.6,0.7,0.8,1.7,0.8,2.9v3.5h-6.3v-3.2C430.9,537.3,431.1,536.2,431.7,535.5z"/>
	</g>
</g>
</svg>
